<?xml version="1.0" standalone="no"?>
<!DOCTYPE svg PUBLIC "-//W3C//DTD SVG 20010904//EN"
 "http://www.w3.org/TR/2001/REC-SVG-20010904/DTD/svg10.dtd">
<svg version="1.0" xmlns="http://www.w3.org/2000/svg"
 width="600.000000pt" height="564.000000pt" viewBox="0 0 600.000000 564.000000"
 preserveAspectRatio="xMidYMid meet">
<metadata>
Created by potrace 1.16, written by Peter Selinger 2001-2019
</metadata>
<g transform="translate(0.000000,564.000000) scale(0.100000,-0.100000)"
fill="#000000" stroke="none">
<path d="M2513 5319 c-102 -11 -136 -23 -129 -47 2 -9 16 -75 31 -147 14 -71
30 -148 35 -170 5 -22 21 -96 35 -165 32 -153 62 -299 77 -364 l11 -48 39 5
c22 3 45 10 51 16 10 10 11 906 1 923 -6 9 -38 9 -151 -3z"/>
<path d="M2876 5318 c-3 -7 -7 -214 -9 -460 -4 -362 -3 -449 8 -458 21 -18 81
-24 90 -10 4 7 16 54 26 104 11 50 23 111 29 136 5 25 25 119 44 210 19 91 48
228 65 305 16 77 28 143 25 146 -2 4 -48 12 -101 18 -54 6 -115 14 -135 17
-27 4 -39 2 -42 -8z"/>
<path d="M2120 5243 c-59 -10 -210 -66 -210 -78 0 -14 14 -49 74 -187 8 -18
47 -111 86 -207 40 -96 76 -184 81 -195 5 -12 30 -73 56 -136 43 -103 51 -115
75 -118 40 -5 68 14 68 46 0 32 -166 857 -175 872 -6 10 -11 10 -55 3z"/>
<path d="M3361 5227 c-5 -13 -21 -84 -36 -158 -15 -74 -31 -150 -35 -169 -15
-67 -81 -385 -97 -468 -15 -72 -15 -85 -2 -93 23 -14 80 -22 90 -12 5 5 54
119 109 254 56 134 107 258 114 274 8 17 40 92 71 168 48 116 55 141 44 151
-14 13 -153 58 -216 71 -29 6 -34 3 -42 -18z"/>
<path d="M3805 5053 c-9 -21 -79 -193 -157 -383 -77 -190 -147 -360 -154 -379
-22 -53 -18 -70 21 -88 34 -16 36 -16 54 3 10 10 112 158 227 329 114 170 225
334 246 364 21 30 35 58 31 62 -10 9 -239 129 -247 129 -3 0 -13 -17 -21 -37z"/>
<path d="M1565 5020 c-55 -32 -99 -64 -97 -70 4 -17 489 -747 501 -754 5 -4
28 1 51 10 29 12 40 22 37 33 -4 15 -234 583 -261 646 -8 17 -28 67 -47 113
-41 102 -46 102 -184 22z"/>
<path d="M1220 4790 c-102 -81 -141 -120 -138 -135 4 -20 628 -645 644 -645
19 0 76 51 71 65 -8 19 -497 754 -506 760 -5 2 -37 -18 -71 -45z"/>
<path d="M4213 4767 c-108 -161 -434 -635 -452 -657 -12 -14 -21 -30 -21 -37
0 -14 57 -63 73 -63 18 0 647 633 646 650 -1 21 -166 170 -187 170 -10 0 -35
-27 -59 -63z"/>
<path d="M4464 4371 c-82 -79 -167 -162 -188 -185 -22 -22 -85 -88 -140 -146
-56 -58 -116 -122 -134 -143 l-33 -38 23 -40 c14 -26 28 -39 39 -37 28 5 759
492 759 506 0 22 -48 90 -113 159 l-63 66 -150 -142z"/>
<path d="M852 4443 c-31 -32 -70 -83 -86 -112 l-29 -54 29 -21 c16 -12 78 -53
139 -92 60 -39 169 -109 240 -155 307 -200 352 -229 362 -229 14 0 63 58 63
74 0 12 -632 637 -651 644 -5 2 -35 -23 -67 -55z"/>
<path d="M586 4067 c-29 -49 -96 -192 -96 -204 0 -8 22 -19 105 -51 28 -11
203 -81 390 -157 187 -75 345 -139 352 -142 10 -4 53 63 53 82 0 5 -766 515
-775 515 -2 0 -15 -19 -29 -43z"/>
<path d="M4620 3915 c-162 -106 -332 -217 -378 -246 -46 -28 -86 -57 -89 -65
-4 -12 23 -80 36 -88 6 -4 412 153 476 184 11 5 94 39 185 75 91 37 171 69
178 72 6 3 12 12 12 19 0 18 -110 244 -119 244 -3 0 -139 -88 -301 -195z"/>
<path d="M4955 3598 c-82 -33 -267 -107 -410 -163 l-260 -103 1 -46 c0 -25 5
-51 11 -57 7 -7 65 1 189 25 98 20 204 41 234 47 30 6 73 15 95 20 22 5 118
25 214 43 95 19 176 37 179 41 3 3 -5 42 -17 88 -41 146 -48 162 -67 164 -11
1 -86 -25 -169 -59z"/>
<path d="M416 3642 c-3 -5 -9 -26 -15 -48 -5 -21 -17 -66 -26 -99 -31 -107
-51 -94 215 -148 129 -26 255 -51 280 -56 25 -5 118 -23 208 -41 89 -18 165
-30 168 -27 4 3 7 29 8 58 l1 51 -404 159 c-223 88 -410 159 -417 159 -7 0
-15 -4 -18 -8z"/>
<path d="M2680 3479 c-25 -5 -74 -14 -110 -20 -198 -35 -486 -161 -682 -300
-101 -72 -368 -321 -368 -343 0 -14 59 -71 110 -108 86 -62 234 -128 425 -189
136 -44 125 -42 125 -29 0 5 -35 36 -78 68 -142 109 -184 164 -184 247 0 24
10 64 21 90 58 132 333 331 561 408 153 51 231 62 425 61 177 -2 213 -6 435
-53 121 -26 373 -120 574 -215 65 -31 123 -56 130 -56 20 1 -81 86 -181 153
-241 160 -416 230 -708 282 -89 16 -419 19 -495 4z"/>
<path d="M2645 3215 c-69 -33 -146 -113 -186 -192 -62 -122 -50 -290 28 -416
61 -99 156 -175 265 -211 92 -31 229 -35 330 -10 206 52 377 217 417 402 13
62 15 201 2 220 -5 9 -26 12 -66 10 l-58 -3 2 -90 c3 -152 -50 -274 -157 -361
-107 -87 -208 -126 -328 -126 -101 0 -159 18 -238 75 -111 79 -169 195 -169
342 -1 83 2 96 35 165 39 84 103 155 167 185 22 11 41 23 41 28 0 14 -35 6
-85 -18z"/>
<path d="M2785 3201 c-100 -33 -181 -111 -222 -212 -13 -32 -18 -70 -18 -139
0 -82 4 -103 26 -150 73 -153 227 -238 382 -211 137 24 254 114 296 227 25 66
30 218 7 249 -13 18 -14 18 -57 -3 -37 -18 -51 -20 -81 -11 -78 21 -105 115
-52 178 14 17 24 37 21 45 -17 43 -207 60 -302 27z"/>
<path d="M301 3108 c-6 -46 -12 -108 -13 -138 l-3 -55 448 -3 447 -2 11 27 c5
15 9 40 7 57 -3 34 7 31 -208 71 -80 14 -188 35 -240 45 -156 31 -352 68 -396
75 l-42 6 -11 -83z"/>
<path d="M5140 3175 c-36 -8 -126 -25 -200 -39 -74 -14 -157 -30 -185 -36 -27
-6 -122 -24 -210 -40 -198 -38 -205 -41 -205 -80 0 -17 5 -40 10 -51 10 -18
26 -19 470 -19 l460 0 0 43 c0 23 -5 86 -12 140 -14 111 -7 107 -128 82z"/>
<path d="M289 2696 c-11 -23 0 -175 17 -243 7 -25 19 -25 119 -3 22 5 92 19
155 30 127 24 337 64 415 80 28 6 82 16 120 23 79 15 85 24 65 96 l-11 41
-435 0 -434 0 -11 -24z"/>
<path d="M4455 2518 c-266 -70 -452 -240 -533 -486 -21 -65 -25 -97 -26 -207
-1 -110 3 -142 22 -205 57 -181 192 -340 361 -425 169 -85 352 -98 546 -37 38
12 152 69 187 93 14 11 33 19 41 19 23 0 86 -76 81 -97 -4 -13 73 -96 296
-318 165 -165 306 -301 313 -303 6 -1 41 26 75 61 l64 64 -304 307 c-257 261
-307 307 -327 303 -17 -3 -34 5 -62 30 -22 20 -39 42 -39 50 0 8 13 33 29 56
72 106 110 214 121 347 12 147 -10 254 -78 381 -92 171 -257 305 -438 355 -71
20 -273 27 -329 12z m295 -113 c143 -38 284 -143 358 -268 108 -180 115 -403
20 -591 -33 -65 -106 -152 -164 -196 -29 -22 -56 -40 -59 -40 -3 0 -5 124 -5
275 0 151 -3 275 -7 276 -5 0 -33 2 -63 4 -98 7 -90 34 -90 -305 0 -164 -3
-305 -6 -314 -4 -11 -19 -16 -45 -16 l-39 0 -2 398 -3 397 -77 3 -78 3 0 -385
c0 -211 -3 -391 -6 -399 -4 -12 -12 -13 -44 -3 -21 6 -42 15 -47 19 -4 5 -10
93 -13 195 l-5 187 -72 3 -73 3 -1 -28 c0 -15 -1 -77 -1 -136 -1 -123 -9 -135
-54 -90 -192 189 -231 469 -101 718 42 81 164 202 242 240 33 16 87 37 120 46
76 22 239 24 315 4z"/>
<path d="M3679 2434 c-23 -28 -204 -143 -284 -180 -43 -20 -124 -48 -179 -62
-88 -22 -122 -26 -271 -26 -170 -1 -231 7 -385 45 -152 37 -346 109 -501 185
-49 24 -94 44 -99 44 -51 0 127 -131 306 -226 105 -55 257 -108 392 -136 152
-32 420 -31 572 1 215 45 372 111 551 227 106 70 130 91 108 98 -160 50 -189
55 -210 30z"/>
<path d="M1135 2379 c-22 -4 -60 -13 -85 -18 -25 -6 -92 -19 -150 -30 -215
-40 -476 -92 -522 -102 -60 -14 -60 -17 -12 -166 28 -87 40 -113 53 -113 19 0
821 326 832 338 4 4 0 28 -8 55 -17 52 -25 54 -108 36z"/>
<path d="M1075 1991 c-132 -54 -257 -105 -279 -114 -21 -10 -41 -17 -44 -17
-14 0 -239 -95 -251 -106 -12 -10 -6 -27 34 -107 26 -52 57 -107 70 -123 l22
-28 219 145 c455 301 544 362 544 370 0 20 -44 79 -58 78 -10 0 -125 -44 -257
-98z"/>
<path d="M1120 1584 c-201 -135 -367 -252 -368 -260 -5 -21 33 -76 106 -154
l60 -65 64 61 c325 315 578 569 578 581 0 19 -49 83 -64 82 -6 0 -175 -110
-376 -245z"/>
<path d="M1535 1418 c-99 -101 -242 -247 -318 -325 -77 -78 -138 -146 -136
-151 5 -13 128 -113 175 -142 30 -19 38 -21 45 -9 4 8 118 178 254 379 l245
365 -35 33 c-19 17 -38 32 -43 32 -4 0 -89 -82 -187 -182z"/>
<path d="M1958 1412 c-8 -9 -124 -183 -258 -385 -228 -346 -241 -369 -224
-382 34 -25 211 -115 227 -115 8 0 17 6 20 13 158 380 336 824 333 832 -2 5
-21 20 -43 32 -38 21 -41 22 -55 5z"/>
<path d="M3513 1408 c-18 -11 -33 -24 -33 -30 0 -8 47 -129 71 -183 5 -11 56
-137 113 -280 150 -373 153 -380 168 -383 19 -4 209 92 230 115 15 17 -1 43
-240 397 -142 209 -261 381 -267 382 -5 1 -25 -7 -42 -18z"/>
<path d="M3218 1289 c-16 -6 -28 -18 -28 -27 0 -23 48 -295 90 -507 23 -119
30 -155 45 -240 22 -123 33 -155 53 -155 46 1 252 72 252 87 0 8 -61 159 -80
198 -6 11 -25 58 -44 105 -69 172 -127 316 -136 335 -5 11 -27 63 -49 115 -41
101 -50 108 -103 89z"/>
<path d="M2235 1258 c-41 -93 -325 -803 -325 -813 0 -13 194 -74 245 -78 l28
-2 32 160 c18 88 58 285 89 438 31 153 56 284 56 292 0 14 -56 35 -93 35 -10
0 -23 -14 -32 -32z"/>
<path d="M2531 1119 c-12 -63 -42 -220 -67 -349 -25 -129 -54 -280 -65 -334
-13 -67 -16 -103 -9 -110 11 -11 78 -21 203 -32 76 -7 77 -7 78 17 4 141 -4
896 -10 902 -4 4 -30 10 -58 13 l-50 6 -22 -113z"/>
<path d="M2900 1221 l-25 -7 -7 -449 c-4 -303 -3 -454 4 -462 6 -7 31 -13 57
-13 51 1 219 24 227 32 3 3 -7 66 -21 139 -67 343 -94 483 -115 599 -29 161
-32 170 -67 169 -16 -1 -39 -4 -53 -8z"/>
</g>
</svg>
