<svg width="14" height="14" viewBox="0 0 14 14" fill="none" xmlns="http://www.w3.org/2000/svg">
<path d="M9.3335 4.6665C10.2618 4.6665 11.152 5.03525 11.8084 5.69163C12.4647 6.34801 12.8335 7.23825 12.8335 8.1665V12.2498H10.5002V8.1665C10.5002 7.85708 10.3772 7.56034 10.1585 7.34155C9.93966 7.12275 9.64292 6.99984 9.3335 6.99984C9.02408 6.99984 8.72733 7.12275 8.50854 7.34155C8.28975 7.56034 8.16683 7.85708 8.16683 8.1665V12.2498H5.8335V8.1665C5.8335 7.23825 6.20225 6.34801 6.85862 5.69163C7.515 5.03525 8.40524 4.6665 9.3335 4.6665Z" fill="white"/>
<path d="M3.49984 5.25H1.1665V12.25H3.49984V5.25Z" fill="white"/>
<path d="M2.33317 3.49984C2.9775 3.49984 3.49984 2.9775 3.49984 2.33317C3.49984 1.68884 2.9775 1.1665 2.33317 1.1665C1.68884 1.1665 1.1665 1.68884 1.1665 2.33317C1.1665 2.9775 1.68884 3.49984 2.33317 3.49984Z" fill="white"/>
</svg>
