<svg width="20" height="20" viewBox="0 0 20 20" fill="none" xmlns="http://www.w3.org/2000/svg">
<path d="M10 0L10.85 6.27611L14.3388 0.990312L12.3815 7.01367L17.8183 3.7651L13.4414 8.34271L19.7493 7.77479L13.8197 10L19.7493 12.2252L13.4414 11.6573L17.8183 16.2349L12.3815 12.9863L14.3388 19.0097L10.85 13.7239L10 20L9.15005 13.7239L5.66116 19.0097L7.61848 12.9863L2.18168 16.2349L6.55861 11.6573L0.250721 12.2252L6.18034 10L0.250721 7.77479L6.55861 8.34271L2.18168 3.7651L7.61848 7.01367L5.66116 0.990312L9.15005 6.27611L10 0Z" fill="#6BA50F"/>
</svg>
