<svg width="46" height="48" viewBox="0 0 46 48" fill="none" xmlns="http://www.w3.org/2000/svg">
<path d="M22.009 1.31726C22.1654 0.162863 23.8346 0.162858 23.991 1.31726L25.1922 10.1877C25.3162 11.1031 26.5089 11.3753 27.0178 10.6043L31.9489 3.1336C32.5906 2.16135 34.0945 2.8856 33.7345 3.99351L30.9681 12.5067C30.6826 13.3853 31.6391 14.148 32.4321 13.6742L40.1162 9.08278C41.1162 8.48526 42.157 9.79031 41.3519 10.6323L35.1658 17.1021C34.5274 17.7698 35.0582 18.872 35.9782 18.7892L44.8935 17.9865C46.0538 17.882 46.4252 19.5094 45.3345 19.9187L36.9538 23.0638C36.089 23.3883 36.089 24.6117 36.9538 24.9362L45.3345 28.0813C46.4252 28.4906 46.0538 30.118 44.8935 30.0135L35.9782 29.2108C35.0582 29.128 34.5274 30.2302 35.1658 30.8979L41.3519 37.3677C42.157 38.2097 41.1163 39.5147 40.1162 38.9172L32.4321 34.3258C31.6391 33.852 30.6826 34.6147 30.9681 35.4933L33.7345 44.0065C34.0945 45.1144 32.5906 45.8387 31.9489 44.8664L27.0178 37.3957C26.5089 36.6247 25.3162 36.8969 25.1922 37.8123L23.991 46.6827C23.8346 47.8371 22.1654 47.8371 22.009 46.6827L20.8078 37.8123C20.6838 36.8969 19.4911 36.6247 18.9822 37.3957L14.0511 44.8664C13.4094 45.8386 11.9055 45.1144 12.2655 44.0065L15.0319 35.4933C15.3174 34.6147 14.3609 33.852 13.5679 34.3258L5.88377 38.9172C4.88375 39.5147 3.843 38.2097 4.64807 37.3677L10.8342 30.8979C11.4726 30.2302 10.9419 29.128 10.0218 29.2108L1.10647 30.0135C-0.053772 30.118 -0.425217 28.4906 0.665449 28.0813L9.04616 24.9362C9.91103 24.6117 9.91103 23.3883 9.04616 23.0638L0.665456 19.9187C-0.42521 19.5094 -0.0537748 17.882 1.10647 17.9865L10.0218 18.7892C10.9418 18.872 11.4727 17.7698 10.8342 17.1021L4.64807 10.6323C3.843 9.79032 4.88375 8.48525 5.88377 9.08278L13.5679 13.6742C14.3609 14.148 15.3174 13.3853 15.0319 12.5067L12.2655 3.99352C11.9055 2.88561 13.4094 2.16135 14.0511 3.13359L18.9822 10.6043C19.4911 11.3753 20.6838 11.1031 20.8078 10.1877L22.009 1.31726Z" fill="#6BA50F"/>
</svg>
